<?xml version="1.0" encoding="UTF-8"?>
<svg xmlns="http://www.w3.org/2000/svg" viewBox="0 0 311.21 153.07">
  <defs>
    <style>
      .cls-1 {
        font-size: 13.82px;
        letter-spacing: .1em;
      }

      .cls-1, .cls-2, .cls-3 {
        fill: #689a58;
      }

      .cls-1, .cls-3 {
        font-family: Poppins-Medium, Poppins;
        font-weight: 500;
      }

      .cls-4 {
        fill: #1d365c;
      }

      .cls-5 {
        fill: #fffdfb;
      }

      .cls-6 {
        fill: #479a53;
      }

      .cls-7 {
        fill: #fff;
        font-family: Poppins-Black, Poppins;
        font-size: 20.45px;
        font-weight: 800;
        letter-spacing: 0em;
      }

      .cls-8 {
        fill: none;
      }

      .cls-3 {
        font-size: 16.04px;
        letter-spacing: 0em;
      }

      .cls-9 {
        fill: #deb784;
      }
    </style>
  </defs>
  <g id="OBJECTS">
    <g>
      <g>
        <g>
          <path class="cls-8" d="m80.15,2.52l.03.07s-.03-.07-.03-.07Z"/>
          <path class="cls-8" d="m81.26,4.77c-.11-.23-.22-.45-.32-.65l.32.65Z"/>
          <path class="cls-8" d="m82.75,7.8c-.32-.66-.62-1.26-.9-1.82l.9,1.82Z"/>
          <path class="cls-8" d="m83.28,8.88c-.03-.06-.06-.12-.09-.18l.09.18Z"/>
          <path class="cls-8" d="m80.63,3.49c-.12-.25-.22-.45-.3-.61l.3.61Z"/>
          <polygon class="cls-4" points="73.61 22.5 73.61 22.5 77.16 20.75 73.61 22.5"/>
          <path class="cls-2" d="m81.24,28.26l-2.23,1.1c-.29.14-.59.24-.89.31l-.98-1.99c-.3.07-.61.1-.92.1l9.19,18.66h4.78l-8.95-18.19Z"/>
          <path class="cls-2" d="m82.98,24.81l.98,1.99c-.24.2-.5.37-.79.51l-1.93.95,8.95,18.19h3.74l.62-.86-10.71-21.76c-.23.37-.51.7-.86.98Z"/>
          <path class="cls-2" d="m78.02,27.37c-.29.14-.59.24-.89.31l.98,1.99c.3-.07.6-.17.89-.31l2.23-1.1-.98-1.99-2.23,1.1Z"/>
          <path class="cls-2" d="m83.96,26.8l-.98-1.99c-.24.2-.5.37-.79.51l-1.93.95.98,1.99,1.93-.95c.29-.14.55-.32.79-.51Z"/>
          <rect class="cls-2" x="60.64" y="17.23" width="3.91" height="4.96" transform="translate(-2.27 29.67) rotate(-26.21)"/>
          <path class="cls-2" d="m76.98,19.61l3.85-1.9.49.99,1.73-.85h0l3.74-1.84-2.82-5.73c-.24-.48-.47-.95-.69-1.4l-.09-.18c-.15-.31-.3-.61-.44-.9l-.9-1.82c-.22-.44-.42-.85-.6-1.22l-.32-.65c-.12-.23-.22-.45-.31-.63l-.3-.61c-.07-.13-.11-.23-.14-.29l-.03-.07-19.18,9.44,2.29,4.65,1.87-.92,2.19,4.45-1.87.92,2.16,4.38,6.01-2.96-.49-.99,3.85-1.9Z"/>
          <polygon class="cls-2" points="77.47 20.6 76.98 19.61 73.13 21.51 73.61 22.5 77.16 20.75 77.47 20.6"/>
          <rect class="cls-2" x="77" y="18.61" width="4.29" height="1.1" transform="translate(-.32 36.92) rotate(-26.21)"/>
          <rect class="cls-2" x="64.25" y="15.9" width="2.09" height="4.96" transform="translate(-1.41 30.72) rotate(-26.21)"/>
          <path class="cls-2" d="m57.18,19.61l2.57-1.27-.82-1.67c-.81-1.65-2.81-2.33-4.45-1.52l-3.74,1.84,6.64,13.49,3.74-1.84c1.65-.81,2.33-2.81,1.52-4.45l-.69-1.4-2.57,1.27-2.19-4.45Z"/>
          <rect class="cls-2" x="58.13" y="18.72" width="2.87" height="4.96" transform="translate(-3.24 28.48) rotate(-26.21)"/>
          <path class="cls-2" d="m80.33,2.88c.08.15.18.36.3.61l.31.63c.1.2.21.42.32.65l.6,1.22c.27.55.57,1.16.9,1.82l.44.9c.03.06.06.12.09.18l.69,1.4c.22.44.43.88.66,1.34,7.49-3.68,11.67-.3,11.67-.3l3.12-1.54c-6.64-13.49-19.27-7.27-19.27-7.27,0,0,.01.03.03.07l.14.29Z"/>
          <path class="cls-2" d="m81.85,5.98l-.6-1.22c.18.37.38.77.6,1.22Z"/>
          <path class="cls-2" d="m83.97,10.28l-.69-1.4c.22.45.45.92.69,1.4Z"/>
          <path class="cls-2" d="m80.33,2.88l-.14-.29c.03.06.08.15.14.29Z"/>
          <path class="cls-2" d="m80.94,4.12l-.31-.63c.09.19.2.4.31.63Z"/>
          <path class="cls-2" d="m83.19,8.71l-.44-.9c.14.29.29.59.44.9Z"/>
          <path class="cls-2" d="m71.81,23.94l.78,1.58c.71,1.43,2.14,2.26,3.64,2.27l-2.38-4.84-2.03,1Z"/>
          <rect class="cls-2" x="81.33" y="18.25" width="1.93" height=".5" transform="translate(.29 38.24) rotate(-26.21)"/>
          <rect class="cls-2" x="71.58" y="22.97" width="2.26" height=".5" transform="translate(-2.78 34.5) rotate(-26.21)"/>
          <path class="cls-2" d="m83.84,23.83c.72-1.15.85-2.64.2-3.95l-.78-1.58-1.73.85,2.3,4.68Z"/>
          <polygon class="cls-2" points="77.69 21.05 77.47 20.6 77.16 20.75 73.61 22.5 73.84 22.94 77.69 21.05"/>
          <path class="cls-2" d="m75.79,24.95l3.07-1.51-1.18-2.39-3.85,1.9,2.38,4.84c.3,0,.61-.03.92-.1l-1.35-2.74Z"/>
          <rect class="cls-2" x="77.36" y="19.63" width="4.29" height=".5" transform="translate(-.61 37.15) rotate(-26.21)"/>
          <path class="cls-2" d="m77.69,21.05l1.18,2.39,2.77-1.37,1.35,2.74c.34-.28.63-.61.86-.98l-2.3-4.68-3.85,1.9Z"/>
          <path class="cls-2" d="m80.26,26.27l-1.4-2.84-3.07,1.51,1.35,2.74c.3-.07.6-.17.89-.31l2.23-1.1Z"/>
          <path class="cls-2" d="m82.19,25.32c.29-.14.55-.32.79-.51l-1.35-2.74-2.77,1.37,1.4,2.84,1.93-.95Z"/>
          <rect class="cls-2" x="82.18" y="17.32" height="1.93"/>
          <polygon class="cls-2" points="77.16 20.75 77.47 20.6 77.47 20.6 77.16 20.75"/>
          <rect class="cls-2" x="77.25" y="19.65" width="4.29" transform="translate(-.52 37.08) rotate(-26.21)"/>
          <path class="cls-4" d="m50.73,17h0l-.35.17c-.41.2-.76.48-1.05.81.28-.33.63-.6,1.05-.81l.35-.17Z"/>
          <path class="cls-4" d="m48.56,19.71c.06-.42.2-.83.41-1.2-.21.37-.35.78-.41,1.2Z"/>
          <polygon class="cls-4" points="57.37 30.49 57.37 30.49 57.03 30.66 57.37 30.49"/>
          <path class="cls-2" d="m50.39,17.18c-.41.2-.76.48-1.05.81-.14.16-.27.34-.37.52-.21.37-.35.78-.41,1.2-.09.63,0,1.3.31,1.92l3.7,7.52c.81,1.65,2.81,2.33,4.45,1.52l.35-.17-6.64-13.49-.35.17Z"/>
          <path class="cls-2" d="m121.19,46.45l14.64-28.15c.19-.36.44-.66.73-.91s.63-.42.99-.54c.36-.11.74-.16,1.12-.13.38.03.76.14,1.12.32.36.19.66.44.91.73.24.29.42.63.54.99.23.72.18,1.52-.2,2.24l-13.23,25.44h2.79l11.17-21.48c4.64.14,9.18-2.33,11.46-6.72,2.29-4.4,1.7-9.53-1.08-13.25l-3.92,7.54c-.7,1.35-2.36,1.87-3.71,1.17l-4.73-2.46c-1.35-.7-1.87-2.36-1.17-3.71L142.55,0c-4.64-.14-9.18,2.33-11.46,6.72-2.29,4.4-1.7,9.53,1.08,13.25l-13.57,26.1.28.38h2.32Z"/>
          <polygon class="cls-2" points="123.94 46.45 127.81 46.45 141.04 21.01 123.94 46.45"/>
          <path class="cls-9" d="m140.7,17.78c-.24-.29-.55-.55-.91-.73-.36-.19-.74-.29-1.12-.32.38.03.76.14,1.12.32.36.19.66.44.91.73Z"/>
          <path class="cls-9" d="m136.56,17.39c.29-.24.63-.42.99-.54-.36.11-.7.29-.99.54Z"/>
          <path class="cls-9" d="m140.7,17.78c.24.29.42.63.54.99-.11-.36-.29-.7-.54-.99Z"/>
          <path class="cls-2" d="m141.05,20.98c.37-.72.42-1.52.2-2.24-.11-.36-.29-.7-.54-.99-.24-.29-.55-.55-.91-.73-.36-.19-.74-.29-1.12-.32-.38-.03-.76.01-1.12.13-.36.11-.7.29-.99.54s-.55.55-.73.91l-14.64,28.15h2.75l17.11-25.44Z"/>
          <path class="cls-2" d="m141.51,20.98c.37-.72.42-1.52.2-2.24-.11-.36-.29-.7-.54-.99-.24-.29-.55-.55-.91-.73-.36-.19-.74-.29-1.12-.32-.38-.03-.76.01-1.12.13-.36.11-.7.29-.99.54s-.55.55-.73.91l-14.64,28.15h2.75l17.11-25.44Z"/>
        </g>
        <polygon class="cls-2" points="135.65 47.06 78.33 47.06 67.96 70.14 146.02 70.14 135.65 47.06"/>
        <polygon class="cls-2" points="160.52 107.45 106.4 33.11 52.29 107.45 160.52 107.45"/>
        <path class="cls-5" d="m134.28,84.91l-27.88-38.3-27.88,38.3-9.76,13.41v24.47c11.99-1.69,24.66-2.59,37.63-2.59s25.64.9,37.63,2.59v-24.47l-9.76-13.41Z"/>
        <g>
          <rect class="cls-2" x="96.01" y="67.68" width="8.81" height="10.92"/>
          <rect class="cls-2" x="107.99" y="67.68" width="8.81" height="10.92"/>
          <rect class="cls-2" x="96.01" y="80.71" width="8.81" height="10.92"/>
          <rect class="cls-2" x="107.99" y="80.71" width="8.81" height="10.92"/>
        </g>
      </g>
      <path class="cls-2" d="m212.8,153.07c-20.56-16.31-60.5-27.37-106.4-27.37S20.56,136.77,0,153.07c28.52-10.71,65.71-17.18,106.4-17.18s77.89,6.48,106.4,17.18Z"/>
    </g>
    <path class="cls-6" d="m124.94,97.12l.26.04v4.45l-.26.04-.7.11-.18.03v-4.81l.18.03.7.11Zm2.41,3.27l-1.72.61v-3.23l1.72.61v2Zm-10.97,3.85l.62,3.07h-2.84l.87-2.93,1.36-.13Zm.94,9.27v3.85h-11.83v-3.85h11.83Zm10.88-13.62h-.42v-1h1.42l-1,1Zm-13.49,4.08h-.02s-.99,3.35-.99,3.35l-.94,3.18,1.4,2.57h-7.9l.51-1.59h2.09l.06-.21.06-.22h-2.07l.44-1.38h2.04l.06-.21.07-.22h-2.02l.44-1.38h1.98l.06-.21.07-.22h-1.97l.44-1.38h1.93l.13-.43h-1.92l.49-1.53-3.57-2.32v-5.12l2.19-.84h14.52l1.18.69.16.09v5.52l-.12.15-.71.9-6.47.63-1.61.16Zm-.17-5.89h0s-.49-.01-.49-.01l1.56,2.79h.49l-1.56-2.78Zm5.97,2.76h0s.49.01.49.01l-1.56-2.79h-.49l1.56,2.78Zm-2.45,0h0s.49.01.49.01l-1.56-2.79h-.49l1.56,2.78Zm15.07-1.96l-1,1h-1.35l1-1h1.35Zm-1.96,0l-1,1h-1.35l1-1h1.35Zm7.87,0l-1,1h-1.35l1-1h1.35Zm-1.99,0l-1,1h-1.35l1-1h1.35Zm-1.96,0l-1,1h-1.35l1-1h1.35Z"/>
    <path class="cls-6" d="m85.19,97.12l-.26.04v4.45l.26.04.7.11.18.03v-4.81l-.18.03-.7.11Zm-2.41,3.27l1.72.61v-3.23l-1.72.61v2Zm10.97,3.85l-.62,3.07h2.84l-.87-2.93-1.36-.13Zm-.94,9.27v3.85h11.83v-3.85h-11.83Zm-10.88-13.62h.42v-1h-1.42l1,1Zm13.49,4.08h.02s.99,3.35.99,3.35l.94,3.18-1.4,2.57h7.9l-.51-1.59h-2.09l-.06-.21-.06-.22h2.07l-.44-1.38h-2.04l-.06-.21-.07-.22h2.02l-.44-1.38h-1.98l-.06-.21-.07-.22h1.97l-.44-1.38h-1.93l-.13-.43h1.92l-.49-1.53,3.57-2.32v-5.12l-2.19-.84h-14.52l-1.18.69-.16.09v5.52l.12.15.71.9,6.47.63,1.61.16Zm.17-5.89h0s.49-.01.49-.01l-1.56,2.79h-.49l1.56-2.78Zm-5.97,2.76h0s-.49.01-.49.01l1.56-2.79h.49l-1.56,2.78Zm2.45,0h0s-.49.01-.49.01l1.56-2.79h.49l-1.56,2.78Zm-15.07-1.96l1,1h1.35l-1-1h-1.35Zm1.96,0l1,1h1.35l-1-1h-1.35Zm-7.87,0l1,1h1.35l-1-1h-1.35Zm1.99,0l1,1h1.35l-1-1h-1.35Zm1.96,0l1,1h1.35l-1-1h-1.35Z"/>
  </g>
  <g id="TEXTS">
    <g>
      <text class="cls-7" transform="translate(160.1 89.64)"><tspan x="0" y="0">BETHEL</tspan></text>
      <text class="cls-3" transform="translate(237.96 87.21)"><tspan x="0" y="0">Serviços </tspan></text>
      <text id="Marido_de_aluguel" data-name="Marido de aluguel" class="cls-1" transform="translate(161.12 104.42)"><tspan x="0" y="0">Marido de aluguel</tspan></text>
    </g>
  </g>
</svg>