<?xml version="1.0" encoding="UTF-8"?>
<svg xmlns="http://www.w3.org/2000/svg" viewBox="0 0 500 500">
  <defs>
    <style>
      .cls-1 {
        fill: #1d365c;
      }

      .cls-2 {
        fill: #fffdfb;
      }

      .cls-3, .cls-4 {
        fill: #689a58;
      }

      .cls-5 {
        fill: #fff;
        font-family: Poppins-Black, Poppins;
        font-size: 20.45px;
        font-weight: 800;
        letter-spacing: 0em;
      }

      .cls-6 {
        fill: none;
      }

      .cls-4 {
        font-family: Poppins-Medium, Poppins;
        font-size: 16.04px;
        font-weight: 500;
        letter-spacing: 0em;
      }

      .cls-7 {
        fill: #deb784;
      }
    </style>
  </defs>
  <g id="BACKGROUND">
    <rect width="500" height="500"/>
  </g>
  <g id="OBJECTS">
    <g>
      <g>
        <g>
          <path class="cls-6" d="m208.98,117.66l.05.1c-.03-.06-.05-.1-.05-.1Z"/>
          <path class="cls-6" d="m210.7,121.15c-.18-.36-.34-.7-.5-1.01l.5,1.01Z"/>
          <path class="cls-6" d="m213.02,125.87c-.5-1.02-.97-1.97-1.39-2.83l1.39,2.83Z"/>
          <path class="cls-6" d="m213.85,127.55c-.05-.09-.09-.18-.14-.28l.14.28Z"/>
          <path class="cls-6" d="m209.72,119.16c-.19-.39-.35-.71-.47-.95l.47.95Z"/>
          <polygon class="cls-1" points="198.8 148.74 198.8 148.74 204.32 146.03 198.8 148.74"/>
          <path class="cls-3" d="m210.67,157.72l-3.48,1.71c-.45.22-.92.38-1.39.49l-1.52-3.1c-.47.11-.95.16-1.42.16l14.3,29.05h7.45l-13.93-28.31Z"/>
          <path class="cls-3" d="m213.38,152.34l1.52,3.1c-.37.31-.78.58-1.23.8l-3.01,1.48,13.93,28.31h5.82l.97-1.33-16.67-33.88c-.35.57-.8,1.08-1.33,1.52Z"/>
          <path class="cls-3" d="m205.67,156.33c-.45.22-.92.38-1.39.49l1.52,3.1c.47-.11.93-.26,1.39-.49l3.48-1.71-1.52-3.1-3.48,1.71Z"/>
          <path class="cls-3" d="m214.91,155.43l-1.52-3.1c-.37.31-.78.58-1.23.8l-3.01,1.48,1.52,3.1,3.01-1.48c.45-.22.86-.49,1.23-.8Z"/>
          <rect class="cls-3" x="178.62" y="140.54" width="6.09" height="7.72" transform="translate(-45.09 95.07) rotate(-26.21)"/>
          <path class="cls-3" d="m204.04,144.25l5.99-2.95.76,1.54,2.69-1.33h0l5.83-2.87-4.39-8.91c-.37-.75-.73-1.48-1.07-2.18l-.14-.28c-.24-.48-.47-.95-.69-1.4l-1.39-2.83c-.34-.69-.65-1.32-.93-1.89l-.5-1.01c-.18-.37-.34-.69-.48-.98l-.47-.95c-.1-.21-.18-.36-.22-.45l-.05-.1-29.85,14.7,3.56,7.24,2.91-1.43,3.41,6.93-2.91,1.43,3.36,6.82,9.35-4.6-.76-1.54,5.99-2.95Z"/>
          <polygon class="cls-3" points="204.8 145.79 204.04 144.25 198.05 147.2 198.8 148.74 204.32 146.03 204.8 145.79"/>
          <rect class="cls-3" x="204.07" y="142.69" width="6.68" height="1.71" transform="translate(-42.07 106.36) rotate(-26.21)"/>
          <rect class="cls-3" x="184.22" y="138.48" width="3.25" height="7.72" transform="translate(-43.75 96.7) rotate(-26.21)"/>
          <path class="cls-3" d="m173.22,144.25l4-1.97-1.28-2.59c-1.26-2.57-4.37-3.62-6.93-2.36l-5.82,2.87,10.33,20.99,5.82-2.87c2.57-1.26,3.62-4.37,2.36-6.93l-1.07-2.18-4,1.97-3.41-6.93Z"/>
          <rect class="cls-3" x="174.69" y="142.87" width="4.46" height="7.72" transform="translate(-46.61 93.22) rotate(-26.21)"/>
          <path class="cls-3" d="m209.25,118.21c.12.24.28.56.47.95l.48.98c.15.31.32.65.5,1.01l.93,1.89c.42.86.89,1.81,1.39,2.83l.69,1.4c.05.09.09.18.14.28l1.07,2.18c.33.68.68,1.37,1.03,2.09,11.65-5.73,18.17-.46,18.17-.46l4.85-2.39c-10.33-20.99-29.99-11.31-29.99-11.31,0,0,.02.04.05.1l.22.45Z"/>
          <path class="cls-3" d="m211.63,123.04l-.93-1.89c.28.57.59,1.2.93,1.89Z"/>
          <path class="cls-3" d="m214.92,129.73l-1.07-2.18c.34.7.7,1.43,1.07,2.18Z"/>
          <path class="cls-3" d="m209.25,118.21l-.22-.45c.04.09.12.24.22.45Z"/>
          <path class="cls-3" d="m210.2,120.14l-.48-.98c.14.29.3.62.48.98Z"/>
          <path class="cls-3" d="m213.71,127.28l-.69-1.4c.22.45.45.92.69,1.4Z"/>
          <path class="cls-3" d="m195.99,150.99l1.21,2.46c1.1,2.23,3.33,3.52,5.66,3.53l-3.71-7.54-3.16,1.56Z"/>
          <rect class="cls-3" x="210.81" y="142.14" width="3" height=".78" transform="translate(-41.12 108.41) rotate(-26.21)"/>
          <rect class="cls-3" x="195.63" y="149.48" width="3.52" height=".78" transform="translate(-45.89 102.58) rotate(-26.21)"/>
          <path class="cls-3" d="m214.72,150.82c1.12-1.8,1.32-4.11.32-6.15l-1.21-2.46-2.69,1.33,3.58,7.28Z"/>
          <polygon class="cls-3" points="205.14 146.49 204.8 145.79 204.32 146.03 198.8 148.74 199.15 149.44 205.14 146.49"/>
          <path class="cls-3" d="m202.19,152.56l4.78-2.36-1.83-3.72-5.99,2.95,3.71,7.54c.47,0,.95-.05,1.42-.16l-2.1-4.26Z"/>
          <rect class="cls-3" x="204.63" y="144.28" width="6.68" height=".78" transform="translate(-42.51 106.71) rotate(-26.21)"/>
          <path class="cls-3" d="m205.14,146.49l1.83,3.72,4.32-2.13,2.1,4.26c.53-.44.98-.95,1.33-1.52l-3.58-7.28-5.99,2.95Z"/>
          <path class="cls-3" d="m209.14,154.62l-2.17-4.42-4.78,2.36,2.1,4.26c.47-.11.93-.26,1.39-.49l3.48-1.71Z"/>
          <path class="cls-3" d="m212.15,153.14c.45-.22.86-.49,1.23-.8l-2.1-4.26-4.32,2.13,2.17,4.42,3.01-1.48Z"/>
          <rect class="cls-3" x="212.14" y="140.68" height="3"/>
          <polygon class="cls-3" points="204.32 146.03 204.8 145.79 204.8 145.79 204.32 146.03"/>
          <rect class="cls-3" x="204.45" y="144.32" width="6.68" transform="translate(-42.37 106.6) rotate(-26.21)"/>
          <path class="cls-1" d="m163.19,140.19h0l-.54.27c-.64.32-1.19.75-1.63,1.26.44-.51.99-.94,1.63-1.26l.54-.27Z"/>
          <path class="cls-1" d="m159.81,144.4c.09-.66.31-1.3.64-1.87-.33.58-.55,1.21-.64,1.87Z"/>
          <polygon class="cls-1" points="173.52 161.18 173.52 161.18 172.98 161.45 173.52 161.18"/>
          <path class="cls-3" d="m162.65,140.46c-.64.32-1.19.75-1.63,1.26-.22.25-.41.53-.58.82-.33.58-.55,1.21-.64,1.87-.14.99.01,2.03.49,2.99l5.76,11.7c1.26,2.57,4.37,3.62,6.93,2.36l.54-.27-10.33-20.99-.54.27Z"/>
          <path class="cls-3" d="m272.85,186.03l22.79-43.82c.29-.56.68-1.03,1.14-1.41s.98-.66,1.54-.84c.56-.18,1.15-.25,1.74-.2.59.05,1.18.21,1.74.5.56.29,1.03.68,1.41,1.14.38.46.66.98.84,1.54.35,1.12.28,2.37-.3,3.49l-20.6,39.6h4.35l17.39-33.43c7.22.22,14.28-3.62,17.84-10.46,3.56-6.84,2.65-14.83-1.68-20.62l-6.1,11.74c-1.09,2.1-3.68,2.92-5.78,1.82l-7.36-3.83c-2.1-1.09-2.92-3.68-1.82-5.78l6.1-11.74c-7.22-.22-14.28,3.62-17.84,10.46-3.56,6.84-2.65,14.83,1.68,20.62l-21.12,40.62.43.6h3.6Z"/>
          <polygon class="cls-3" points="277.13 186.03 283.16 186.03 303.75 146.42 277.13 186.03"/>
          <path class="cls-7" d="m303.22,141.4c-.38-.46-.85-.85-1.41-1.14-.56-.29-1.15-.46-1.74-.5.59.05,1.18.21,1.74.5.56.29,1.03.68,1.41,1.14Z"/>
          <path class="cls-7" d="m296.78,140.79c.46-.38.98-.66,1.54-.84-.56.18-1.08.46-1.54.84Z"/>
          <path class="cls-7" d="m303.22,141.4c.38.46.66.98.84,1.54-.18-.56-.46-1.08-.84-1.54Z"/>
          <path class="cls-3" d="m303.76,146.38c.58-1.12.66-2.37.3-3.49-.18-.56-.46-1.08-.84-1.54-.38-.46-.85-.85-1.41-1.14-.56-.29-1.15-.46-1.74-.5-.59-.05-1.18.02-1.74.2-.56.18-1.08.46-1.54.84s-.85.85-1.14,1.41l-22.79,43.82h4.28l26.63-39.6Z"/>
          <path class="cls-3" d="m304.49,146.38c.58-1.12.66-2.37.3-3.49-.18-.56-.46-1.08-.84-1.54-.38-.46-.85-.85-1.41-1.14-.56-.29-1.15-.46-1.74-.5-.59-.05-1.18.02-1.74.2-.56.18-1.08.46-1.54.84s-.85.85-1.14,1.41l-22.79,43.82h4.28l26.63-39.6Z"/>
        </g>
        <polygon class="cls-3" points="328.55 189.5 171.12 189.5 142.63 252.89 357.03 252.89 328.55 189.5"/>
        <polygon class="cls-3" points="334.06 280.97 249.83 165.27 165.61 280.97 334.06 280.97"/>
        <path class="cls-2" d="m293.22,245.88l-43.39-59.6-43.39,59.6-15.19,20.87v38.08c18.66-2.63,38.39-4.02,58.58-4.02s39.91,1.4,58.58,4.02v-38.08l-15.19-20.87Z"/>
        <g>
          <rect class="cls-3" x="230.25" y="238.68" width="16.59" height="20.57"/>
          <rect class="cls-3" x="252.82" y="238.68" width="16.59" height="20.57"/>
          <rect class="cls-3" x="230.25" y="263.23" width="16.59" height="20.57"/>
          <rect class="cls-3" x="252.82" y="263.23" width="16.59" height="20.57"/>
        </g>
      </g>
      <path class="cls-3" d="m415.44,351.98c-32.01-25.38-94.17-42.6-165.61-42.6s-133.6,17.22-165.61,42.6c44.38-16.66,102.28-26.74,165.61-26.74s121.22,10.08,165.61,26.74Z"/>
    </g>
  </g>
  <g id="TEXTS">
    <g>
      <text class="cls-5" transform="translate(211.65 357.26)"><tspan x="0" y="0">BETHEL</tspan></text>
      <text class="cls-4" transform="translate(213.21 376.94)"><tspan x="0" y="0">Serviços </tspan></text>
    </g>
  </g>
</svg>